<?xml version="1.0" encoding="UTF-8"?><svg id="b" xmlns="http://www.w3.org/2000/svg" viewBox="0 0 293.046 67.367"><g id="c"><path d="M.31,22.567v-12.68C.31,6.296.133,3.237,0,.71h5.231c-.133,2.527-.311,5.586-.311,9.177v12.68c0,3.591.178,6.651.311,9.177H0c.133-2.527.31-5.586.31-9.177Z" fill="#040000"/><path d="M17.466,22.567v-12.68c0-3.591-.133-6.65-.266-9.177,3.724.133,5.675-.089,9.709-.089,6.34,0,10.995,2.66,10.995,8.202,0,5.055-4.034,7.626-7.802,8.025,1.285.886,2.882,2.659,4.433,4.478l4.478,5.276c2.084,2.482,3.237,3.813,4.566,5.143h-5.896l-8.069-10.153c-2.837-3.547-4.034-3.902-7.538-3.902v4.877c0,3.591.222,6.651.311,9.177h-5.187c.133-2.527.266-5.586.266-9.177ZM23.452,15.784c6.651,0,9.577-1.153,9.577-5.808,0-4.833-3.193-7.227-7.404-7.227-2.66,0-3.548.621-3.548,2.66v10.375h1.375Z" fill="#040000"/><path d="M54.263,23.985l6.872-15.428c1.552-3.636,2.084-5.852,2.261-7.315.044-.487,3.193-1.019,3.325-.709l10.064,23.497c1.108,2.572,2.35,5.143,3.591,7.715h-5.364l-3.237-7.759c-.444-1.019-1.374-1.064-2.793-1.064h-9.221c-1.33,0-2.217,0-2.66,1.064l-3.147,7.759h-3.281c1.241-2.572,2.438-5.187,3.591-7.759ZM59.893,20.66h9.089c.665,0,1.375-.089,1.108-.665l-5.631-13.478-5.675,13.478c-.266.576.444.665,1.108.665Z" fill="#040000"/><path d="M90.97,19.774l1.02-19.02c.044-.665,1.285-.71,1.641,0l13.123,24.384L119.034.754c.354-.71,1.641-.665,1.685,0l1.02,19.02c.177,3.99.487,7.98.842,11.97h-4.966c-.133-3.99-.266-7.98-.444-11.97l-.487-9.044-7.538,15.029c-1.064,2.04-1.729,3.99-1.95,4.789-.177.488-.753.665-1.463.665-.621,0-1.019-.133-1.285-.665l-10.552-19.729-.398,8.956c-.178,3.99-.222,7.98-.355,11.97h-3.014c.31-3.99.665-7.98.842-11.97Z" fill="#040000"/><path d="M135.923,23.985l6.872-15.428c1.552-3.636,2.084-5.852,2.261-7.315.044-.487,3.193-1.019,3.325-.709l10.064,23.497c1.108,2.572,2.35,5.143,3.591,7.715h-5.364l-3.237-7.759c-.444-1.019-1.374-1.064-2.793-1.064h-9.221c-1.33,0-2.217,0-2.66,1.064l-3.147,7.759h-3.281c1.241-2.572,2.438-5.187,3.591-7.759ZM141.554,20.66h9.089c.665,0,1.375-.089,1.108-.665l-5.631-13.478-5.675,13.478c-.266.576.444.665,1.108.665Z" fill="#040000"/><path d="M169.927,29.483l.443-1.773c1.064-3.857,1.685,1.862,9.754,1.862,4.124,0,6.207-1.906,6.207-4.611,0-2.35-1.685-3.414-4.522-5.143l-4.965-3.014c-4.522-2.749-6.296-4.656-6.296-7.759,0-5.231,5.054-9.044,10.684-9.044,3.459,0,7.582,1.419,7.315,2.35l-.665,2.084c-1.02,3.325-1.773-1.596-8.468-1.596-3.591,0-5.187,1.818-5.187,4.168,0,1.995,1.197,3.192,4.167,4.965l5.188,3.148c4.522,2.749,6.34,4.699,6.34,7.802,0,5.365-5.409,9.532-11.306,9.532-3.813,0-9.044-1.685-8.689-2.97Z" fill="#040000"/><path d="M199.984,20.173v-10.286c0-3.591-.177-6.65-.31-9.177h5.408c-.133,2.527-.31,5.586-.31,9.177v10.507c0,6.296,3.679,9.354,8.645,9.354,5.099,0,9.044-3.059,9.044-9.354v-5.808c0-4.611-.044-8.38-.266-13.877h3.28c-.221,5.497-.266,9.266-.266,13.877v5.586c0,8.113-5.231,12.28-12.193,12.28-6.117,0-13.035-3.281-13.035-12.28Z" fill="#040000"/><path d="M237.712,22.567v-12.68c0-3.591-.133-6.65-.266-9.177,3.724.133,5.675-.089,9.709-.089,6.34,0,10.995,2.66,10.995,8.202,0,5.055-4.034,7.626-7.802,8.025,1.285.886,2.882,2.659,4.433,4.478l4.478,5.276c2.084,2.482,3.237,3.813,4.566,5.143h-5.896l-8.069-10.153c-2.837-3.547-4.034-3.902-7.538-3.902v4.877c0,3.591.222,6.651.311,9.177h-5.187c.133-2.527.266-5.586.266-9.177ZM243.697,15.784c6.651,0,9.577-1.153,9.577-5.808,0-4.833-3.193-7.227-7.404-7.227-2.66,0-3.548.621-3.548,2.66v10.375h1.375Z" fill="#040000"/><path d="M283.153,31.611c-2.926,0-6.296,0-10.019.133.133-2.527.266-5.586.266-9.177v-12.68c0-3.591-.133-6.65-.266-9.177,3.724.133,7.049.133,9.754.133,2.837,0,5.852,0,9.399-.222.443-.044.532.089.443.488l-.532,2.261c-.044.222-.177.266-.665.222-4.123-.355-7.758-.576-11.128-.576-1.508,0-2.217.487-2.261,1.685-.09,1.906-.134,3.591-.134,5.365v3.458c0,1.153.576,1.374,1.463,1.374h.798c3.99,0,6.074-.044,8.557-.354.355-.044.532.177.355.576l-.753,1.862c-.222.488-.399.488-.976.444-1.685-.133-4.744-.311-7.581-.311h-.399c-.887,0-1.463.222-1.463,1.375v3.902c0,1.773,0,3.414.134,5.32.089,1.197.753,1.685,2.261,1.685,3.591,0,7.847-.267,11.97-.621.488-.044.709,0,.665.221l-.532,2.35c-.089.399-.089.532-.444.488-3.547-.221-6.118-.221-8.912-.221Z" fill="#040000"/><path d="M101.878,59.537c0-4.546,2.778-7.83,7.051-7.83,3.769,0,6.105,2.4,6.463,5.41h-2.421c-.273-1.474-1.2-3.411-4.083-3.411-3.327,0-4.59,2.821-4.59,5.81,0,3.01,1.263,5.83,4.59,5.83,2.905,0,3.936-1.936,4.083-3.768h2.421c-.337,3.347-2.694,5.768-6.484,5.768-4.273,0-7.031-3.284-7.031-7.81Z" fill="#040000"/><path d="M116.532,61.684c0-3.347,2.021-5.705,5.389-5.705,3.325,0,5.346,2.337,5.346,5.684,0,3.368-2.021,5.704-5.367,5.704s-5.368-2.315-5.368-5.683ZM125.121,61.684c0-2.253-1.011-3.979-3.2-3.979-2.231,0-3.241,1.726-3.241,3.979,0,2.231,1.01,3.978,3.241,3.978,2.189,0,3.2-1.747,3.2-3.978Z" fill="#040000"/><path d="M129.017,67.052v-15.05h2.063v15.05h-2.063Z" fill="#040000"/><path d="M133.396,67.052v-15.05h2.063v15.05h-2.063Z" fill="#040000"/><path d="M147.606,62.231h-8.251c.041,1.789,1.094,3.452,3.221,3.452,1.894,0,2.631-1.221,2.82-1.936h2.105c-.568,2.063-2.146,3.62-4.967,3.62-3.411,0-5.305-2.42-5.305-5.704,0-3.368,2.021-5.684,5.305-5.684,3.263,0,5.094,2.147,5.094,5.473,0,.295,0,.611-.021.779ZM145.479,60.611c0-1.684-1.178-2.947-3.01-2.947-1.726,0-2.989,1.179-3.115,2.947h6.125Z" fill="#040000"/><path d="M148.808,61.684c0-3.368,2.084-5.684,5.262-5.684,2.758,0,4.588,1.789,4.842,4.21h-2.127c-.105-1.116-.736-2.505-2.694-2.505-2.294,0-3.135,1.958-3.135,3.979s.842,3.957,3.135,3.957c1.979,0,2.59-1.347,2.694-2.568h2.127c-.147,2.462-2.063,4.294-4.821,4.294-3.199,0-5.283-2.315-5.283-5.683Z" fill="#040000"/><path d="M165.314,65.389v1.663c-.526.105-.862.126-1.305.126-1.769,0-2.842-.674-2.842-3.157v-5.999h-1.558v-1.705h1.558v-3.452h2.062v3.452h2.063v1.705h-2.063v6.062c0,1.136.317,1.389,1.2,1.389.358,0,.526-.021.884-.084Z" fill="#040000"/><path d="M166.895,54.401v-2.231h2.336v2.231h-2.336ZM167.02,67.052v-10.735h2.063v10.735h-2.063Z" fill="#040000"/><path d="M174.22,67.052l-3.831-10.735h2.211l2.82,8.609h.021l2.78-8.609h2.146l-3.831,10.735h-2.316Z" fill="#040000"/><path d="M191.148,62.231h-8.251c.041,1.789,1.094,3.452,3.221,3.452,1.894,0,2.631-1.221,2.82-1.936h2.105c-.568,2.063-2.146,3.62-4.967,3.62-3.411,0-5.305-2.42-5.305-5.704,0-3.368,2.021-5.684,5.305-5.684,3.263,0,5.094,2.147,5.094,5.473,0,.295,0,.611-.021.779ZM189.021,60.611c0-1.684-1.178-2.947-3.01-2.947-1.726,0-2.989,1.179-3.115,2.947h6.125Z" fill="#040000"/></g></svg>